<svg xmlns="http://www.w3.org/2000/svg" width="800" height="800" fill="#3D66FF" stroke="#3D66FF" stroke-width="0" viewBox="0 0 32 32"><g stroke="none" data-name="Layer 20"><path d="M28.86 17a8.13 8.13 0 0 0-7.25-11.85A8.06 8.06 0 0 0 16 7.39 8.14 8.14 0 0 0 4.63 19.05l.43.4a1.83 1.83 0 0 0 .13.16l10.1 10.1a1 1 0 0 0 1.42 0l4.92-4.93A5.36 5.36 0 0 0 28.86 17ZM16 27.59l-9.17-9.17a.91.91 0 0 0-.28-.34 5.35 5.35 0 0 1-.5-.45A6.14 6.14 0 0 1 14.73 9a5.43 5.43 0 0 1 .46.51l.1.12a1 1 0 0 0 1.45 0l.07-.09a5.43 5.43 0 0 1 .46-.54 6.14 6.14 0 0 1 10 6.71 5.89 5.89 0 0 0-.63-.29h-.07a6.77 6.77 0 0 0-.77-.22h-.22a5.14 5.14 0 0 0-.88-.08 5.38 5.38 0 0 0-5.38 5.38 5.87 5.87 0 0 0 .09.94l.06.27c.05.22.12.44.19.65l.11.27a6 6 0 0 0 .37.71 1.05 1.05 0 0 0 .07.11Zm8.71-3.84a3.38 3.38 0 0 1-3.38-3.37 3.38 3.38 0 1 1 3.38 3.37Z"/><path d="M25.54 18.54 24 20.21l-.28-.41a1 1 0 0 0-1.64 1.2l1 1.43a1 1 0 0 0 .76.43h.07a1 1 0 0 0 .73-.32L27 19.89a1 1 0 0 0 0-1.41 1 1 0 0 0-1.46.06Z"/></g></svg>