<svg xmlns="http://www.w3.org/2000/svg" xml:space="preserve" id="Icons" width="800" height="800" fill="#fff" version="1.1" viewBox="0 0 32 32"><g id="SVGRepo_iconCarrier"><style>.st0{fill:none;stroke:#4586ff;stroke-width:2;stroke-linecap:round;stroke-linejoin:round;stroke-miterlimit:10}</style><circle cx="20.5" cy="11.5" r="3.5" class="st0"/><path d="M17.4 13.2 15 15.7c-.8.8-2 .8-2.8 0l-2.8-2.8c-.8-.8-.8-2 0-2.8L16.5 3l5.3 5.3m2 1.9c3.1 1.7 5.2 5 5.2 8.8 0 5.5-4.5 10-10 10H3v-2c0-1.1.9-2 2-2h10l4 4" class="st0"/><path d="M22.8 14.1c1.5 1.1 2.4 2.9 2.4 4.9 0 3.4-2.8 6-6.2 6h-4m-2.8-9.3L10 17.8c-.4.4-1 .4-1.4 0l-1.4-1.4c-.4-.4-.4-1 0-1.4l2.2-2.2m7.8-9.1L18.9 2c.4-.4 1-.4 1.4 0l2.1 2.1c.4.4.4 1 0 1.4l-1.7 1.7" class="st0"/></g></svg>